<?xml version="1.0" encoding="utf-8"?>
<!-- Generator: Adobe Illustrator 15.0.0, SVG Export Plug-In . SVG Version: 6.00 Build 0)  -->
<svg version="1.2" baseProfile="tiny" id="Layer_1" xmlns="http://www.w3.org/2000/svg" xmlns:xlink="http://www.w3.org/1999/xlink"
	 x="0px" y="0px" width="346px" height="336px" viewBox="0 0 346 336" xml:space="preserve">
<path fill-rule="evenodd" fill="#91CA66" d="M185.333,278.333l4,8c-1.8,2.354,76.489-46.155,87-111
	c10.237-63.154,8.818-85.967,52-109c2.598-1.386-125.303,1.136-154,92C151.207,231.559,185.333,278.333,185.333,278.333z"/>
<path fill-rule="evenodd" fill="#7CC363" d="M205.422,132.175c0.752-0.167-9.041,27.516,1.623,57.677
	c0.056,0.164-0.531,1.379-0.581,1.231C196.322,162.787,205.001,132.034,205.422,132.175L205.422,132.175z"/>
<path fill-rule="evenodd" fill="#7CC363" d="M273.232,92.921c0.021,0.132,1.611-0.88,1.569-1.022
	c-2.456-8.609,7.591-14.478,5.909-14.735C280.167,77.029,271.918,84.921,273.232,92.921L273.232,92.921z"/>
<path fill-rule="evenodd" fill="#7CC363" d="M191.955,274.333c1.289-5.998-0.36-9.501,0.864-25.261
	c1.22-14.74,5.313-41.736,18.024-71.148c12.208-29.233,33.025-60.898,56.039-80.993c22.006-20.766,29.698-19.848,25.452-19.598
	c1.523-0.552,8.148-2.87,7-3c1.222,0.128,0.449-0.721,0-1c4.737-0.311-9.136,2.975-31.074,23.455
	c-22.931,19.785-43.899,51.335-56.236,80.583c-12.852,29.407-17.063,56.527-18.232,71.263c-1.198,15.761,0.646,19.137-0.776,24.686
	C192.988,272.535,191.957,274.319,191.955,274.333z"/>
<path fill-rule="evenodd" fill="#7CC363" d="M231.006,139.353c0.029,0.146,1.103-1.148,1.055-1.302
	c-5.457-15.872,10.052-40.128,9.068-40.002C240.46,97.785,226.768,120.661,231.006,139.353z"/>
<path fill-rule="evenodd" fill="#7CC363" d="M195.646,235.922c-0.224-0.043-0.527,0.803-0.314,0.866
	c14.166,5.111,30.488-13.89,31.659-15.949C226.831,219.888,211.291,239.784,195.646,235.922L195.646,235.922z"/>
<path fill-rule="evenodd" fill="#7CC363" d="M274.801,91.899c-0.94-0.053-1.893,1.005-1.569,1.022
	c11.198,0.515,23.147-5.538,22.303-5.574C294.504,87.251,284.102,92.367,274.801,91.899L274.801,91.899z"/>
<path fill-rule="evenodd" fill="#7CC363" d="M207.045,189.852c-0.227,0.006-0.79,1.209-0.581,1.231
	c7.132,0.951,17.275-5.693,27.977-12.543c10.355-6.883,21.269-13.971,21.946-14.675c0.666-0.781-9.484,5.366-19.805,12.078
	C225.94,182.598,215.127,189.818,207.045,189.852L207.045,189.852z"/>
<path fill-rule="evenodd" fill="#7CC363" d="M232.061,138.05c-0.275-0.026-1.309,1.299-1.055,1.302
	c14.345-0.318,41.116-18.525,43.492-19.546C275.245,118.049,244.147,138.661,232.061,138.05L232.061,138.05z"/>
<path fill-rule="evenodd" fill="#7CC363" d="M194.883,235.861c-15.552-25.116-14.133-48.505-14.049-48.292
	c0.986-0.035-2.054,20.49,14.368,47.422C195.292,235.137,194.964,235.992,194.883,235.861L194.883,235.861z"/>
<path fill="#5AB047" d="M202.333,282.333c-0.042-0.678,0.644-80.326-40-138c-38.714-54.936-128.369-56.044-139-108
	c-0.921-4.502-3.88,94.865,42,153c33.477,42.418,94.542,75.789,120,93c8.962,6.059,11.542,23.947,19,38
	C204.769,321.154,202.338,282.399,202.333,282.333z"/>
<path fill-rule="evenodd" fill="none" d="M153.399,198.946"/>
<path fill-rule="evenodd" fill="#58A545" d="M197.524,287.771c-18.63-38.551-41.164-76.337-64.632-101.952
	c-24.008-27.858-48.974-43.231-77.625-80.459c-9.785-12.863-19.657-27.931-28.165-44.503c9.219,16.893,19.919,32.116,30.482,44.935
	c28.401,36.521,53.08,51.91,76.85,79.841c23.194,25.661,45.504,63.518,63.869,101.747c0.258,0.539,1.392,3.452,1.654,5.537
	c1.292,7.102,1.366,13.013,1.376,13.417c0.023,0.944-1.788-11.676-2.159-13.425C198.958,292.021,199.104,291.041,197.524,287.771z"
	/>
<path fill-rule="evenodd" fill="#58A545" d="M132.625,183.509c0.109-0.024,9.738-31.922,6.863-42.144
	c-2.928-10.176,9.474-0.93-6.304,43.734C132.98,185.669,132.626,183.508,132.625,183.509z"/>
<path fill-rule="evenodd" fill="#58A545" d="M99.53,150.384c0.072,0.083,5.292-21.755,1.819-32.722
	c-3.687-11.5,8.009,2.285-1.182,34.222C100.003,152.444,99.531,150.385,99.53,150.384L99.53,150.384z"/>
<path fill-rule="evenodd" fill="#58A545" d="M63.449,112.57c0.001-0.06,3.65-6.84-0.011-19.764
	c-3.866-13.632,6.688,6.164,0.743,21.629C63.954,115.032,63.45,112.573,63.449,112.57L63.449,112.57z"/>
<path fill-rule="evenodd" fill="#58A545" d="M131.969,184.696c0.153-0.323-36.912,4.345-53.399,0.479
	c-10.192-2.255,1.945,6.819,54.894,0.723C134.099,185.837,131.97,184.693,131.969,184.696L131.969,184.696z"/>
<path fill-rule="evenodd" fill="#58A545" d="M164.918,225.583c0.036-0.136,9.754-25.298,7.424-36.891
	c-2.436-11.877,8.045,3.111-6.917,38.843C165.175,228.137,164.918,225.581,164.918,225.583L164.918,225.583z"/>
<path fill-rule="evenodd" fill="#58A545" d="M98.571,150.81c-0.108-0.477-14.541,8.099-44.112-1.958
	c-12.812-4.791,13.94,12.809,44.749,3.458C99.861,152.128,98.572,150.811,98.571,150.81L98.571,150.81z"/>
<path fill-rule="evenodd" fill="#58A545" d="M61.496,113.181c-0.002-0.243-6.01,1.695-23.137-7.354
	c-8.977-5.127,7.496,8.877,24.844,8.92C63.883,114.765,61.496,113.188,61.496,113.181L61.496,113.181z"/>
<path fill-rule="evenodd" fill="#58A545" d="M164.008,225.858c-0.058,0.265-13.403,6.549-39.138-4.442
	c-11.173-4.591,15.453,12.457,39.646,6.393C165.114,227.647,164.008,225.856,164.008,225.858z"/>
</svg>
